<svg width="22" height="22" viewBox="0 0 22 22" fill="none" xmlns="http://www.w3.org/2000/svg">
<path d="M4.11308 9.00099C4.11308 9.09867 4.07057 9.181 4.04576 9.27405C3.99245 9.47396 4.00705 9.67947 3.95785 9.87627C3.8918 10.1405 3.77644 10.4094 3.77644 10.6842C3.77644 10.938 3.70911 11.1725 3.70911 11.423C3.70911 11.6179 3.57228 11.2616 3.55949 11.2173C3.46848 10.9018 3.42374 10.5747 3.33693 10.2578C3.21606 9.81664 3.1195 9.37013 2.99467 8.92992C2.88749 8.55197 2.73574 8.15195 2.67298 7.76287C2.63393 7.52075 2.6655 7.78288 2.6655 7.88631C2.6655 8.3252 2.6655 8.76409 2.6655 9.20298C2.6655 10.6963 2.63184 12.1878 2.63184 13.6804" stroke="black" stroke-width="3" stroke-linecap="round"/>
<path d="M3.2041 9.37128C3.2041 10.1652 3.36148 10.9321 3.40796 11.7222C3.42515 12.0143 3.55534 12.3134 3.62678 12.5956C3.71442 12.9418 4.0439 13.1663 4.11305 13.512" stroke="black" stroke-width="3" stroke-linecap="round"/>
<path d="M3.5542 14.9867C3.59988 14.9867 3.64688 14.9796 3.68625 15.0026C3.79376 15.0653 3.95369 14.823 3.9899 14.7592C4.10402 14.5581 4.24752 14.3765 4.37083 14.1847C4.43603 14.0833 4.54196 14.0093 4.64588 13.9395C4.8349 13.8124 5.00785 13.67 5.20815 13.5604C5.24243 13.5416 5.28145 13.5149 5.31221 13.491C5.34095 13.4686 5.36919 13.4774 5.4047 13.4691C5.44085 13.4607 5.47308 13.4403 5.50693 13.4259C5.56717 13.4002 5.63074 13.3866 5.69253 13.3656C5.74757 13.3469 5.80356 13.3289 5.8617 13.3231C5.88379 13.3208 5.89548 13.3246 5.90916 13.3109" stroke="black" stroke-width="3" stroke-linecap="round"/>
<path d="M4.16602 9.07397C4.2456 9.07397 4.26063 9.35884 4.28511 9.42685C4.30423 9.47995 4.32638 9.52524 4.33804 9.58123C4.35038 9.64044 4.32448 9.76012 4.35716 9.80913C4.42411 9.90956 4.37774 10.1555 4.37774 10.2796C4.37774 10.4631 4.35128 10.6369 4.35128 10.8207C4.35128 11.0448 4.37681 11.2154 4.43067 11.4309C4.44232 11.4775 4.53495 11.6949 4.563 11.7147C4.62227 11.7565 4.68047 11.8563 4.73356 11.919C4.8033 12.0015 4.82373 12.1185 4.90705 12.1969C4.91942 12.2086 4.85297 12.0267 4.83354 11.9587C4.73637 11.6186 4.57133 11.2789 4.4836 10.928C4.45692 10.8213 4.42607 10.7083 4.37774 10.609C4.33034 10.5115 4.328 10.3756 4.27188 10.2914" stroke="black" stroke-width="3" stroke-linecap="round"/>
<path d="M3.74271 7.56544C3.69071 7.54811 3.64597 7.39031 3.62214 7.3449C3.5655 7.23692 3.58391 7.1073 3.58391 6.98908C3.58391 6.64306 3.58391 6.29705 3.58391 5.95104C3.58391 5.78909 3.61535 5.66616 3.6736 5.51729C3.70042 5.44877 3.68469 5.37476 3.70448 5.3041C3.74844 5.14709 3.86091 4.96418 3.95443 4.83948" stroke="black" stroke-width="3" stroke-linecap="round"/>
<path d="M3.98096 7.06261C4.00386 6.37561 4.35382 5.78841 4.71611 5.23059C4.90688 4.93687 5.13962 4.66509 5.29983 4.35134C5.40082 4.15358 5.4963 3.95253 5.59536 3.75439" stroke="black" stroke-width="3" stroke-linecap="round"/>
<path d="M4.64258 5.5805C4.81099 5.53457 4.87582 5.15409 4.9484 5.01296C5.01226 4.8888 5.09054 4.81243 5.13072 4.6689C5.1606 4.56221 5.15016 4.43534 5.19248 4.33661C5.25541 4.18977 5.32433 4.06748 5.42479 3.93963C5.52522 3.81181 5.59844 3.67579 5.71885 3.56323C5.85256 3.43823 6.03623 3.32626 6.19082 3.22653C6.28267 3.16727 6.41602 3.06092 6.52164 3.03979" stroke="black" stroke-width="3" stroke-linecap="round"/>
<path d="M5.83343 4.17783C5.80966 4.27291 5.72229 4.36365 5.67464 4.44836C5.6099 4.56344 5.54782 4.6842 5.47173 4.79242C5.34754 4.96905 5.21849 5.14693 5.10415 5.33055C5.01987 5.46593 4.94265 5.69798 4.80127 5.79223" stroke="black" stroke-width="3" stroke-linecap="round"/>
<path d="M4.90745 5.26294C4.83988 5.4192 4.80276 5.61678 4.76189 5.78343C4.69566 6.05342 4.63289 6.3216 4.54869 6.58622C4.44432 6.91426 4.3469 7.25735 4.29286 7.5978C4.22963 7.9961 4.06055 8.34537 4.06055 8.75641" stroke="black" stroke-width="3" stroke-linecap="round"/>
<path d="M18.0928 7.05341C18.2222 8.72886 18.318 10.3314 18.318 12.0082" stroke="black" stroke-width="3" stroke-linecap="round"/>
<path d="M18.1675 8.85513C18.2899 9.77333 18.6573 10.6818 18.8682 11.5828C18.9811 12.0653 19.0458 12.571 19.1434 13.0592" stroke="black" stroke-width="3" stroke-linecap="round"/>
<path d="M19.9695 8.32962C19.9695 9.28153 19.6985 10.0723 19.4189 10.978C19.2399 11.5581 19.1903 12.2152 18.9185 12.7589" stroke="black" stroke-width="3" stroke-linecap="round"/>
<path d="M17.9425 6.75311C17.9425 7.32311 17.9425 7.89311 17.9425 8.4631C17.9425 8.93904 17.7173 9.39118 17.7173 9.8728C17.7173 10.8098 17.7173 11.7468 17.7173 12.6839" stroke="black" stroke-width="3" stroke-linecap="round"/>
<path d="M17.4168 12.3835C17.4168 12.9936 17.0011 13.6224 17.2082 14.2437C17.2997 14.5181 17.8276 14.4169 18.0507 14.4105C18.4763 14.3984 18.3176 13.7513 18.3176 13.4346" stroke="black" stroke-width="3" stroke-linecap="round"/>
<path d="M17.7171 13.4346C17.7171 13.6926 17.5968 14.3378 17.8297 14.519C18.0087 14.6582 17.9324 14.5824 18.0341 14.7859C18.0905 14.8988 18.2138 15.1093 18.3177 15.1612" stroke="black" stroke-width="3" stroke-linecap="round"/>
<path d="M15.7983 12.1913V12.4058" stroke="black" stroke-width="3" stroke-linecap="round"/>
<path d="M16.1387 3.94543C16.5785 4.33026 16.8736 4.99277 17.1285 5.51052C17.1824 5.62005 17.1799 5.68387 17.1799 5.79655" stroke="black" stroke-width="3" stroke-linecap="round"/>
<path d="M15.5605 3.4248C15.5605 3.65052 15.7535 3.86852 15.853 4.06755C16.0028 4.36714 16.2144 4.66089 16.4154 4.92883C16.6892 5.29396 16.8195 5.75094 17.0935 6.11149C17.357 6.45813 17.4517 6.8594 17.6752 7.21058C17.8386 7.46735 17.8549 7.74822 17.9451 8.0333C18.0378 8.32619 18.1637 8.66642 18.1637 8.97814" stroke="black" stroke-width="3" stroke-linecap="round"/>
<path d="M17.2378 7.01135C17.2378 7.67028 17.4369 8.40144 17.6299 9.02315C17.8388 9.69628 17.7212 10.6447 17.527 11.292" stroke="black" stroke-width="3" stroke-linecap="round"/>
<path d="M17.2381 9.09384C17.2381 9.42783 17.2631 9.79905 17.1674 10.1222C17.0935 10.3715 16.9562 10.6224 16.9488 10.8871C16.9404 11.1913 16.7558 11.4875 16.7046 11.7998C16.6512 12.1253 16.4401 12.3095 16.3125 12.5647" stroke="black" stroke-width="3" stroke-linecap="round"/>
<path d="M15.3291 13.1432C15.3291 13.2878 15.3291 13.4324 15.3291 13.577C15.3291 13.7249 15.6903 13.6592 15.8047 13.6638C16.1375 13.6771 16.5482 13.8736 16.8042 14.0623C17.1974 14.352 17.5708 14.6318 17.9001 14.9911C18.1719 15.2876 18.3587 15.8185 18.6842 16.0355" stroke="black" stroke-width="3" stroke-linecap="round"/>
<path d="M7.74756 13.7874C8.35433 13.7575 8.95769 13.7501 9.56484 13.7501C9.693 13.7501 9.80611 13.6957 9.93494 13.6941C10.1213 13.6918 10.3061 13.6755 10.4927 13.6755C10.681 13.6755 10.8693 13.6755 11.0577 13.6755C11.6897 13.6755 12.3217 13.6755 12.9537 13.6755" stroke="black" stroke-width="3" stroke-linecap="round"/>
<path d="M4.18994 9.51337C4.38238 9.94101 4.33646 10.5265 4.64449 10.903C4.71429 10.9883 4.75054 11.0867 4.78223 11.1923C4.8317 11.3572 4.96764 11.482 5.04395 11.6346C5.13266 11.812 5.24727 11.9889 5.38065 12.1366C5.44185 12.2044 5.52107 12.3274 5.60716 12.357C5.67911 12.3817 5.74497 12.5046 5.78163 12.5713C5.83854 12.6747 5.95337 12.755 6.06324 12.7916" stroke="black" stroke-width="3" stroke-linecap="round"/>
<path d="M5.12646 7.7778C5.12646 8.74018 5.19411 9.71444 5.40348 10.6566C5.45555 10.8909 5.52473 11.1229 5.57949 11.3576C5.62424 11.5494 5.66672 11.7968 5.76314 11.9682C5.88623 12.1871 6.01323 12.3906 6.17331 12.585C6.22637 12.6494 6.3386 12.7628 6.3386 12.8467" stroke="black" stroke-width="3" stroke-linecap="round"/>
<path d="M3.26318 16.0316C3.48339 15.9582 3.54626 15.5761 3.66989 15.4216C3.83073 15.2205 4.04938 15.0716 4.23928 14.8928C4.44424 14.6999 4.69577 14.511 4.96684 14.4093C5.1511 14.3402 5.51581 14.0762 5.62209 13.9167" stroke="black" stroke-width="3" stroke-linecap="round"/>
<path d="M4.40186 16.113C4.45251 15.6064 4.93875 15.2109 5.1972 14.8115C5.34268 14.5867 5.89507 14.4234 6.11907 14.2783C6.33855 14.136 6.56087 14.0767 6.76076 13.9167" stroke="black" stroke-width="3" stroke-linecap="round"/>
<path d="M14.3257 13.6727H14.6511" stroke="black" stroke-width="3" stroke-linecap="round"/>
<path d="M10.2583 2.61028C11.0253 2.95118 11.5998 2.28491 12.337 2.28491C13.3178 2.28491 14.0988 2.32364 14.8948 2.8543" stroke="black" stroke-width="3" stroke-linecap="round"/>
<path d="M13.4305 2.4476C14.158 2.47558 14.673 2.92607 15.2562 3.29717C15.3753 3.37296 16.149 4.3488 16.0153 4.36365C15.7691 4.39101 15.2151 3.90172 15.0167 3.74907C14.7653 3.55575 14.5308 3.39768 14.2484 3.2565C14.1583 3.21145 14.0899 3.11392 13.9999 3.05766C13.8553 2.9673 13.6675 3.05202 13.5118 2.98084C13.1489 2.81492 12.7544 2.81876 12.373 2.69163" stroke="black" stroke-width="3" stroke-linecap="round"/>
<path d="M10.1773 2.28492C9.90231 2.28492 9.61679 2.2417 9.36387 2.34819C9.15689 2.43534 8.76614 2.68028 8.55046 2.69163C8.09396 2.71566 7.3597 3.5141 7.16313 3.90724C7.08165 4.0702 6.84178 4.18628 6.76094 4.36817C6.64853 4.6211 6.48443 4.83174 6.35423 5.05958C6.11236 5.48285 5.67848 5.75131 5.45947 6.18932" stroke="black" stroke-width="3" stroke-linecap="round"/>
<path d="M16.9229 18.6154C16.9229 18.6154 16.9229 15.2308 11.2959 15.2308C5.0767 15.2308 5.0767 18.6154 5.0767 18.6154" stroke="white" stroke-width="2" stroke-linecap="round"/>
<circle cx="11" cy="11" r="10" stroke="black" stroke-width="2"/>
<path d="M13.3086 12.2648C13.3086 11.9667 14.1585 11.9229 14.3886 11.8811C14.6287 11.8374 14.8983 11.6253 15.1311 11.6253C15.3564 11.6253 15.7023 11.3419 15.8665 11.1777" stroke="black" stroke-width="3" stroke-linecap="round"/>
<path d="M7.10556 10.6661C6.93627 10.7084 7.16951 12.1026 7.16951 12.3926" stroke="black" stroke-width="3" stroke-linecap="round"/>
<circle cx="11" cy="8" r="4" stroke="white" stroke-width="2"/>
</svg>
