<svg width="29" height="29" viewBox="0 0 29 29" fill="none" xmlns="http://www.w3.org/2000/svg">
<path fill-rule="evenodd" clip-rule="evenodd" d="M20.1691 12.7612C20.1691 17.0881 16.6615 20.5957 12.3346 20.5957C8.00765 20.5957 4.5 17.0881 4.5 12.7612C4.5 8.43426 8.00765 4.92661 12.3346 4.92661C16.6615 4.92661 20.1691 8.43426 20.1691 12.7612ZM18.5457 20.3865C16.8523 21.7676 14.6901 22.5957 12.3346 22.5957C6.90308 22.5957 2.5 18.1926 2.5 12.7612C2.5 7.32969 6.90308 2.92661 12.3346 2.92661C17.766 2.92661 22.1691 7.32969 22.1691 12.7612C22.1691 15.1167 21.341 17.2789 19.9599 18.9723L25.2434 24.2558C25.634 24.6464 25.634 25.2795 25.2434 25.67C24.8529 26.0606 24.2198 26.0606 23.8292 25.67L18.5457 20.3865Z" fill="black"/>
</svg>
