<svg width="29" height="29" viewBox="0 0 29 29" fill="none" xmlns="http://www.w3.org/2000/svg">
<path d="M11.2319 8.19684V6.45082C11.2319 4.71508 12.7954 3.30798 14.724 3.30798C16.6526 3.30798 18.216 4.71508 18.216 6.45082V8.19684" stroke="black" stroke-width="2"/>
<path fill-rule="evenodd" clip-rule="evenodd" d="M8.73531 7.30798C6.6171 7.30798 4.86613 8.95931 4.74217 11.0739L4.27075 19.1155C4.06874 22.5613 6.8087 25.4666 10.2605 25.4666H19.5363C22.988 25.4666 25.728 22.5613 25.526 19.1155L25.0546 11.0739C24.9306 8.95931 23.1796 7.30798 21.0614 7.30798H8.73531ZM11.4062 10.6888C11.9571 10.6888 12.4039 11.1341 12.4062 11.6844L12.4062 11.6847L12.4066 11.6998C12.4071 11.716 12.4082 11.7439 12.4106 11.7818C12.4156 11.858 12.4258 11.9727 12.4469 12.1126C12.4898 12.3974 12.5739 12.7604 12.732 13.1099C12.8895 13.4581 13.1058 13.7615 13.399 13.9775C13.6807 14.1851 14.0912 14.3554 14.7237 14.3554C15.4654 14.3554 15.9551 14.1729 16.2888 13.9505C16.6286 13.7239 16.8677 13.4146 17.0376 13.0749C17.2094 12.7313 17.3003 12.3756 17.3466 12.0973C17.3694 11.9605 17.3804 11.8488 17.3857 11.7751C17.3883 11.7384 17.3895 11.7117 17.39 11.6966L17.3903 11.6833C17.3933 11.1335 17.8399 10.6888 18.3903 10.6888C18.9426 10.6888 19.3903 11.1365 19.3903 11.6888H18.3903C19.3903 11.6888 19.3903 11.6893 19.3903 11.6898L19.3903 11.6909L19.3903 11.6934L19.3903 11.6994L19.3901 11.7154C19.3899 11.7279 19.3895 11.7439 19.3889 11.7633C19.3876 11.8019 19.3852 11.854 19.3806 11.9176C19.3716 12.0444 19.3539 12.2191 19.3194 12.4261C19.2512 12.8353 19.1129 13.3963 18.8264 13.9693C18.5379 14.5463 18.0895 15.1537 17.3982 15.6146C16.7005 16.0796 15.8153 16.3554 14.7237 16.3554C13.6975 16.3554 12.8639 16.0675 12.2126 15.5876C11.5727 15.1161 11.167 14.5028 10.9098 13.9343C10.6533 13.3672 10.53 12.8135 10.4693 12.4108C10.4385 12.2069 10.4228 12.0351 10.4148 11.9108C10.4108 11.8485 10.4086 11.7976 10.4075 11.7601C10.4069 11.7413 10.4066 11.7258 10.4064 11.7139L10.4063 11.6986L10.4062 11.693L10.4062 11.6907L10.4062 11.6897C10.4062 11.6892 10.4062 11.6888 11.4062 11.6888L10.4062 11.6888C10.4062 11.1365 10.854 10.6888 11.4062 10.6888Z" fill="black"/>
</svg>
