<svg version="1.1" id="Layer_1" xmlns="http://www.w3.org/2000/svg" xmlns:xlink="http://www.w3.org/1999/xlink" x="0px" y="0px"
	 width="100%" viewBox="0 0 210 210" enable-background="new 0 0 210 210" xml:space="preserve">
<path fill="#FFFFFF" opacity="1.000000" stroke="none" 
	d="
M211.000000,80.000000 
	C211.000000,124.000000 211.000000,167.500000 211.000000,211.000000 
	C141.000000,211.000000 71.000000,211.000000 1.000000,211.000000 
	C1.000000,141.000000 1.000000,71.000000 1.000000,1.000000 
	C71.000000,1.000000 141.000000,1.000000 211.000000,1.000000 
	C211.000000,27.166666 211.000000,53.333332 211.000000,80.000000 
M168.483047,18.996737 
	C123.071999,18.996737 77.660957,18.996737 31.996737,18.996737 
	C31.996737,34.833397 32.051769,50.132416 31.981190,65.430855 
	C31.911240,80.592934 31.714687,95.754433 31.570126,111.296524 
	C27.232969,111.296524 24.157194,111.296524 21.337393,111.296524 
	C21.337393,120.105682 21.337393,128.514832 21.337393,137.302612 
	C25.088713,137.302612 28.498556,137.302612 32.280556,137.302612 
	C32.280556,157.428436 32.280556,177.162064 32.280556,196.688232 
	C81.729424,196.688232 130.784103,196.688232 180.226715,196.688232 
	C180.226715,176.637756 180.226715,156.900208 180.226715,136.776825 
	C184.024521,136.776825 187.434555,136.776825 190.699265,136.776825 
	C190.699265,127.972824 190.699265,119.565384 190.699265,110.774376 
	C186.985611,110.774376 183.575592,110.774376 179.799438,110.774376 
	C179.799438,79.986504 179.799438,49.590725 179.799438,18.996737 
	C176.102737,18.996737 172.789948,18.996737 168.483047,18.996737 
z"/>
<path fill="#020202" opacity="1.000000" stroke="none" 
	d="
M168.980103,18.996737 
	C172.789948,18.996737 176.102737,18.996737 179.799438,18.996737 
	C179.799438,49.590725 179.799438,79.986504 179.799438,110.774376 
	C183.575592,110.774376 186.985611,110.774376 190.699265,110.774376 
	C190.699265,119.565384 190.699265,127.972824 190.699265,136.776825 
	C187.434555,136.776825 184.024521,136.776825 180.226715,136.776825 
	C180.226715,156.900208 180.226715,176.637756 180.226715,196.688232 
	C130.784103,196.688232 81.729424,196.688232 32.280556,196.688232 
	C32.280556,177.162064 32.280556,157.428436 32.280556,137.302612 
	C28.498556,137.302612 25.088713,137.302612 21.337393,137.302612 
	C21.337393,128.514832 21.337393,120.105682 21.337393,111.296524 
	C24.157194,111.296524 27.232969,111.296524 31.570126,111.296524 
	C31.714687,95.754433 31.911240,80.592934 31.981190,65.430855 
	C32.051769,50.132416 31.996737,34.833397 31.996737,18.996737 
	C77.660957,18.996737 123.071999,18.996737 168.980103,18.996737 
M82.614029,36.961903 
	C55.580437,50.816681 40.633911,84.378860 56.380352,114.045280 
	C57.456707,116.073151 57.729073,118.527771 58.375343,120.783920 
	C57.845627,121.115051 57.315914,121.446182 56.786198,121.777306 
	C55.017830,120.065681 53.099144,118.481644 51.514233,116.614311 
	C48.723843,113.326683 46.287563,109.728119 43.377888,106.558182 
	C42.453114,105.550674 40.495522,105.491180 39.010544,104.997879 
	C38.754807,106.523323 37.969307,108.205353 38.363430,109.538704 
	C39.007256,111.716820 40.147491,113.883400 41.563274,115.670692 
	C44.755341,119.700371 47.848114,123.961975 51.726120,127.250984 
	C55.443104,130.403427 53.796062,137.293076 60.048897,138.378143 
	C60.545197,138.464279 60.885571,139.713837 61.214043,140.459869 
	C63.620106,145.924622 66.205505,151.322052 68.336052,156.893036 
	C70.238434,161.867401 71.356026,167.001938 68.912224,172.270981 
	C66.626877,177.198380 68.479736,181.802078 70.842789,186.035370 
	C71.712646,187.593704 73.951057,188.388107 75.565247,189.530960 
	C75.980293,189.089767 76.395340,188.648590 76.810387,188.207413 
	C75.597984,185.416290 73.444153,182.629181 73.432175,179.832916 
	C73.419647,176.909012 75.410698,173.918121 79.265488,173.707825 
	C80.104446,175.327866 80.857315,176.781631 82.023361,179.033279 
	C84.253212,174.286011 86.879417,174.953735 90.565506,175.847717 
	C98.555420,177.785507 106.791466,179.489426 114.964127,179.678543 
	C123.569557,179.877716 132.218414,178.200256 141.093536,177.318375 
	C141.937820,182.502884 138.816711,188.457413 145.692490,192.737045 
	C146.059738,189.277191 146.176559,186.407318 146.711227,183.617538 
	C147.292557,180.584167 147.723938,177.333389 149.159119,174.686157 
	C154.346893,165.117126 157.257187,155.255081 156.416718,144.162567 
	C156.094543,139.910355 153.174591,134.526505 159.322540,131.246124 
	C155.920883,128.637329 157.640549,126.939003 159.723251,125.103645 
	C163.464081,121.807053 167.369125,118.625992 170.654190,114.909317 
	C172.647827,112.653717 173.606796,109.483604 175.530945,105.754623 
	C165.399185,106.837311 162.678574,116.192055 155.499496,119.003220 
	C156.326431,115.128563 157.609985,111.788200 158.935211,108.464439 
	C171.369659,77.277969 154.125046,47.621670 125.977875,35.273205 
	C111.848045,29.074303 97.354523,30.514128 82.614029,36.961903 
M143.022888,24.451641 
	C141.296204,25.085691 138.932358,25.237732 137.998825,26.471783 
	C136.738358,28.137995 135.594894,30.990753 136.205566,32.683437 
	C136.896088,34.597527 139.585327,35.790565 141.405411,37.297153 
	C142.870682,35.234035 145.055359,33.334412 145.573166,31.055977 
	C145.985992,29.239410 144.366074,26.960892 143.022888,24.451641 
M67.784225,32.969868 
	C68.606895,35.972095 71.210716,38.272484 73.423180,36.462029 
	C75.840614,34.483845 76.688812,30.587961 78.220985,27.527939 
	C76.473274,26.654123 73.700485,24.626211 73.157364,25.108614 
	C70.943909,27.074604 69.413025,29.809076 67.784225,32.969868 
z"/>
<path fill="#FDFDFD" opacity="1.000000" stroke="none" 
	d="
M82.970093,36.835068 
	C97.354523,30.514128 111.848045,29.074303 125.977875,35.273205 
	C154.125046,47.621670 171.369659,77.277969 158.935211,108.464439 
	C157.609985,111.788200 156.326431,115.128563 155.499496,119.003220 
	C162.678574,116.192055 165.399185,106.837311 175.530945,105.754623 
	C173.606796,109.483604 172.647827,112.653717 170.654190,114.909317 
	C167.369125,118.625992 163.464081,121.807053 159.723251,125.103645 
	C157.640549,126.939003 155.920883,128.637329 159.322540,131.246124 
	C153.174591,134.526505 156.094543,139.910355 156.416718,144.162567 
	C157.257187,155.255081 154.346893,165.117126 149.159119,174.686157 
	C147.723938,177.333389 147.292557,180.584167 146.711227,183.617538 
	C146.176559,186.407318 146.059738,189.277191 145.692490,192.737045 
	C138.816711,188.457413 141.937820,182.502884 141.093536,177.318375 
	C132.218414,178.200256 123.569557,179.877716 114.964127,179.678543 
	C106.791466,179.489426 98.555420,177.785507 90.565506,175.847717 
	C86.879417,174.953735 84.253212,174.286011 82.023361,179.033279 
	C80.857315,176.781631 80.104446,175.327866 79.265488,173.707825 
	C75.410698,173.918121 73.419647,176.909012 73.432175,179.832916 
	C73.444153,182.629181 75.597984,185.416290 76.810387,188.207413 
	C76.395340,188.648590 75.980293,189.089767 75.565247,189.530960 
	C73.951057,188.388107 71.712646,187.593704 70.842789,186.035370 
	C68.479736,181.802078 66.626877,177.198380 68.912224,172.270981 
	C71.356026,167.001938 70.238434,161.867401 68.336052,156.893036 
	C66.205505,151.322052 63.620106,145.924622 61.214043,140.459869 
	C60.885571,139.713837 60.545197,138.464279 60.048897,138.378143 
	C53.796062,137.293076 55.443104,130.403427 51.726120,127.250984 
	C47.848114,123.961975 44.755341,119.700371 41.563274,115.670692 
	C40.147491,113.883400 39.007256,111.716820 38.363430,109.538704 
	C37.969307,108.205353 38.754807,106.523323 39.010544,104.997879 
	C40.495522,105.491180 42.453114,105.550674 43.377888,106.558182 
	C46.287563,109.728119 48.723843,113.326683 51.514233,116.614311 
	C53.099144,118.481644 55.017830,120.065681 56.786198,121.777306 
	C57.315914,121.446182 57.845627,121.115051 58.375343,120.783920 
	C57.729073,118.527771 57.456707,116.073151 56.380352,114.045280 
	C40.633911,84.378860 55.580437,50.816681 82.970093,36.835068 
M111.894325,81.244949 
	C111.556633,80.314995 110.855743,79.347641 110.946930,78.461830 
	C111.265610,75.366386 111.888252,72.007545 107.372353,71.953003 
	C103.352135,71.904449 102.738541,74.456223 103.185051,78.114288 
	C103.343674,79.413841 101.358185,81.338150 99.901604,82.285652 
	C99.351196,82.643692 97.546288,81.019394 96.284622,80.352844 
	C95.003242,79.675865 93.686592,79.065643 92.385391,78.426186 
	C92.370941,79.948502 92.076134,81.541901 92.437965,82.968803 
	C92.690453,83.964554 93.679710,85.030052 94.623314,85.545425 
	C97.353439,87.036530 98.846931,88.799385 99.342140,92.233864 
	C99.937172,96.360649 102.182472,100.448616 107.126396,100.735825 
	C112.318222,101.037445 112.637123,96.231392 113.847893,92.821800 
	C114.902115,89.853020 115.437805,86.942863 119.145210,85.824226 
	C120.194405,85.507660 121.572525,82.706764 121.156364,81.797058 
	C120.033356,79.342209 118.297295,80.084671 116.427689,81.712906 
	C115.616226,82.419601 113.727676,81.889526 111.894325,81.244949 
M93.314857,56.015274 
	C92.262375,57.339096 91.209892,58.662914 90.157410,59.986732 
	C92.489891,60.085674 94.851875,60.426937 97.138435,60.148598 
	C97.910713,60.054592 98.491898,58.390728 99.160416,57.444313 
	C97.456192,56.915257 95.751961,56.386200 93.314857,56.015274 
M116.889717,60.996941 
	C118.660225,61.344879 120.429543,61.927715 122.201782,61.936779 
	C123.026993,61.940998 123.857895,60.832287 124.686218,60.228050 
	C123.807587,59.347397 123.061195,57.972046 122.021446,57.694084 
	C120.138992,57.190834 118.081566,57.342072 116.097191,57.220058 
	C116.140610,58.356895 116.184029,59.493732 116.889717,60.996941 
z"/>
<path fill="#F1F1F1" opacity="1.000000" stroke="none" 
	d="
M143.335693,24.669540 
	C144.366074,26.960892 145.985992,29.239410 145.573166,31.055977 
	C145.055359,33.334412 142.870682,35.234035 141.405411,37.297153 
	C139.585327,35.790565 136.896088,34.597527 136.205566,32.683437 
	C135.594894,30.990753 136.738358,28.137995 137.998825,26.471783 
	C138.932358,25.237732 141.296204,25.085691 143.335693,24.669540 
z"/>
<path fill="#F4F4F4" opacity="1.000000" stroke="none" 
	d="
M67.707413,32.615120 
	C69.413025,29.809076 70.943909,27.074604 73.157364,25.108614 
	C73.700485,24.626211 76.473274,26.654123 78.220985,27.527939 
	C76.688812,30.587961 75.840614,34.483845 73.423180,36.462029 
	C71.210716,38.272484 68.606895,35.972095 67.707413,32.615120 
z"/>
<path fill="#101010" opacity="1.000000" stroke="none" 
	d="
M112.111328,81.583069 
	C113.727676,81.889526 115.616226,82.419601 116.427689,81.712906 
	C118.297295,80.084671 120.033356,79.342209 121.156364,81.797058 
	C121.572525,82.706764 120.194405,85.507660 119.145210,85.824226 
	C115.437805,86.942863 114.902115,89.853020 113.847893,92.821800 
	C112.637123,96.231392 112.318222,101.037445 107.126396,100.735825 
	C102.182472,100.448616 99.937172,96.360649 99.342140,92.233864 
	C98.846931,88.799385 97.353439,87.036530 94.623314,85.545425 
	C93.679710,85.030052 92.690453,83.964554 92.437965,82.968803 
	C92.076134,81.541901 92.370941,79.948502 92.385391,78.426186 
	C93.686592,79.065643 95.003242,79.675865 96.284622,80.352844 
	C97.546288,81.019394 99.351196,82.643692 99.901604,82.285652 
	C101.358185,81.338150 103.343674,79.413841 103.185051,78.114288 
	C102.738541,74.456223 103.352135,71.904449 107.372353,71.953003 
	C111.888252,72.007545 111.265610,75.366386 110.946930,78.461830 
	C110.855743,79.347641 111.556633,80.314995 112.111328,81.583069 
M103.852982,92.292381 
	C104.425102,94.069603 104.997231,95.846817 105.626854,97.802666 
	C111.068611,94.128410 111.494240,87.224274 105.794456,83.098824 
	C105.028320,86.256393 104.402321,88.836380 103.852982,92.292381 
z"/>
<path fill="#131313" opacity="1.000000" stroke="none" 
	d="
M93.681297,55.936211 
	C95.751961,56.386200 97.456192,56.915257 99.160416,57.444313 
	C98.491898,58.390728 97.910713,60.054592 97.138435,60.148598 
	C94.851875,60.426937 92.489891,60.085674 90.157410,59.986732 
	C91.209892,58.662914 92.262375,57.339096 93.681297,55.936211 
z"/>
<path fill="#1C1C1C" opacity="1.000000" stroke="none" 
	d="
M116.558578,60.813755 
	C116.184029,59.493732 116.140610,58.356895 116.097191,57.220058 
	C118.081566,57.342072 120.138992,57.190834 122.021446,57.694084 
	C123.061195,57.972046 123.807587,59.347397 124.686218,60.228050 
	C123.857895,60.832287 123.026993,61.940998 122.201782,61.936779 
	C120.429543,61.927715 118.660225,61.344879 116.558578,60.813755 
z"/>
<path fill="#F6F6F6" opacity="1.000000" stroke="none" 
	d="
M103.814651,91.854378 
	C104.402321,88.836380 105.028320,86.256393 105.794456,83.098824 
	C111.494240,87.224274 111.068611,94.128410 105.626854,97.802666 
	C104.997231,95.846817 104.425102,94.069603 103.814651,91.854378 
z"/>
</svg>