<svg width="29" height="29" viewBox="0 0 29 29" fill="none" xmlns="http://www.w3.org/2000/svg">
<path fill-rule="evenodd" clip-rule="evenodd" d="M19.5678 12.1425C19.5678 15.9171 16.5079 18.9771 12.7332 18.9771C8.95862 18.9771 5.89868 15.9171 5.89868 12.1425C5.89868 8.36789 8.95862 5.30795 12.7332 5.30795C16.5079 5.30795 19.5678 8.36789 19.5678 12.1425ZM18.5458 20.0764C16.9175 21.2713 14.9078 21.9771 12.7332 21.9771C7.30176 21.9771 2.89868 17.574 2.89868 12.1425C2.89868 6.71103 7.30176 2.30795 12.7332 2.30795C18.1647 2.30795 22.5678 6.71103 22.5678 12.1425C22.5678 14.317 21.862 16.3267 20.6671 17.955L25.9957 23.2836C26.5815 23.8694 26.5815 24.8192 25.9957 25.4049C25.4099 25.9907 24.4601 25.9907 23.8744 25.4049L18.5458 20.0764Z" fill="black"/>
</svg>
