<svg width="23" height="20" viewBox="0 0 23 20" fill="none" xmlns="http://www.w3.org/2000/svg">
<path d="M11.4995 19.2609C11.1062 19.2609 10.7307 19.1362 10.4133 18.9001C8.2588 17.3012 3.10938 13.3239 1.81755 10.9143C0.127895 7.76543 1.14258 3.72131 4.07489 1.89968C5.02253 1.31177 6.09533 1 7.18601 1C8.81755 1 10.3508 1.66808 11.4995 2.85726C12.6483 1.66808 14.1815 1 15.8131 1C16.9038 1 17.9766 1.31177 18.9242 1.89968C21.8565 3.72131 22.8712 7.76543 21.186 10.9143C19.8942 13.3239 14.7448 17.3012 12.5902 18.9001C12.2684 19.1362 11.8929 19.2609 11.4995 19.2609ZM7.18601 2.33616C6.34565 2.33616 5.5187 2.57667 4.78562 3.03096C2.43888 4.49183 1.63428 7.74316 2.99763 10.2819C4.19558 12.5177 9.58639 16.6242 11.209 17.8267C11.3789 17.9514 11.6158 17.9514 11.7856 17.8267C13.4082 16.6197 18.799 12.5133 19.997 10.2819C21.3603 7.74316 20.5557 4.48738 18.209 3.03096C17.4804 2.57667 16.6534 2.33616 15.8131 2.33616C14.3425 2.33616 12.9657 3.04878 12.0359 4.28696L11.4995 5.00848L10.9631 4.28696C10.0334 3.04878 8.6611 2.33616 7.18601 2.33616Z" fill="black" stroke="black" stroke-width="0.7"/>
</svg>
