<svg version="1.1" id="Layer_1" xmlns="http://www.w3.org/2000/svg" xmlns:xlink="http://www.w3.org/1999/xlink" x="0px" y="0px"
	 width="100%" viewBox="0 0 208 208" enable-background="new 0 0 208 208" xml:space="preserve">
<path fill="#000000" opacity="1.000000" stroke="none" 
	d="
M132.000092,30.647896 
	C142.490982,30.653852 152.483749,30.772980 162.471756,30.606991 
	C166.122528,30.546320 167.407349,31.793295 167.400314,35.495247 
	C167.311066,82.452278 167.300735,129.409637 167.412720,176.366577 
	C167.422318,180.392731 165.965317,181.440948 162.164429,181.430618 
	C124.698860,181.328751 87.232758,181.329163 49.767227,181.439468 
	C45.881752,181.450897 44.587696,180.222900 44.596859,176.286179 
	C44.705807,129.495758 44.714520,82.704849 44.592274,35.914490 
	C44.581253,31.696238 46.039268,30.561472 50.074863,30.581791 
	C77.216026,30.718445 104.358231,30.650093 132.000092,30.647896 
M115.396400,110.504837 
	C121.238678,109.087906 122.194969,109.839043 122.140747,115.770325 
	C122.130096,116.934967 122.227943,118.101860 122.188644,119.264763 
	C122.045059,123.514755 120.325027,124.855728 116.064537,124.003822 
	C114.018829,123.594765 112.059814,122.544991 109.260948,123.150490 
	C109.260948,131.199020 109.008743,139.152725 109.334541,147.082687 
	C109.637672,154.461136 108.099762,160.635330 101.831200,165.380142 
	C98.109001,168.197540 98.085976,171.904449 100.846130,174.902344 
	C102.557426,174.215454 102.459923,172.618362 102.781143,171.180481 
	C103.304367,168.838318 104.416969,166.661850 106.424942,165.393204 
	C109.054565,163.731766 111.529510,161.757217 113.943092,166.570908 
	C115.190033,169.057831 117.085495,171.849762 119.557625,174.320038 
	C121.674255,171.068146 120.824524,169.175308 117.798347,167.860184 
	C116.519859,167.304565 114.484497,167.270004 114.965332,165.123978 
	C115.346008,163.425003 117.043671,163.819611 118.316315,163.679016 
	C131.707153,162.199738 141.915039,152.759933 144.844803,139.591354 
	C145.669571,135.884232 145.949020,131.801727 148.546646,128.728699 
	C152.502762,129.751053 150.111130,133.779312 152.297562,135.353836 
	C157.724884,133.812592 160.917587,129.854553 160.655106,125.118790 
	C160.350067,119.615501 156.740067,118.805779 151.342621,119.804390 
	C154.261414,113.980118 156.776108,109.016891 158.735703,103.764336 
	C166.237137,83.657402 151.025314,55.900032 135.584808,49.303574 
	C123.638130,44.199738 111.301903,42.716450 98.535477,43.042435 
	C87.943047,43.312912 78.234665,46.317848 69.465935,52.240326 
	C51.330883,64.488914 46.009064,87.977882 57.472210,106.428299 
	C60.090633,110.642761 59.471802,113.654327 56.670300,117.201294 
	C53.414158,121.323898 54.054443,124.250511 58.568184,126.261864 
	C63.581886,128.496017 68.983284,128.144379 74.311211,127.902245 
	C75.348213,127.855110 76.325104,127.367798 76.379944,126.153168 
	C76.452271,124.551308 75.233566,124.245071 74.014900,124.277687 
	C71.464378,124.345947 69.022423,123.812576 66.710213,122.870750 
	C64.716911,122.058823 62.720753,120.986816 64.199547,117.664932 
	C72.746941,121.185982 81.139915,117.257156 89.635162,117.582146 
	C90.994331,117.634132 92.700089,117.190773 92.974937,115.843712 
	C94.154160,110.064301 98.828926,110.741570 101.926903,112.097733 
	C106.805984,114.233597 110.570503,112.795502 115.396400,110.504837 
M104.517006,124.252251 
	C104.156944,123.227753 103.456329,122.517784 102.379768,122.402161 
	C96.267296,121.745682 90.090675,122.507408 83.976128,121.470245 
	C81.669594,121.079002 81.350212,123.019485 81.394272,124.805511 
	C81.463806,127.624252 81.699928,130.441650 81.689987,133.258987 
	C81.671257,138.566833 81.446045,143.874496 81.463821,149.181717 
	C81.475975,152.809235 82.826927,155.183243 87.117889,154.916733 
	C91.595688,154.638626 96.097755,154.648254 100.587379,154.697983 
	C103.848282,154.734085 104.979309,153.186813 104.919518,150.085205 
	C104.759117,141.764877 104.739250,133.441818 104.517006,124.252251 
M62.989498,134.673309 
	C66.591103,135.757660 68.174698,138.532791 69.570549,141.801056 
	C71.404068,146.094086 73.183151,150.563766 77.783539,153.989639 
	C77.232872,147.353577 76.585327,141.436768 77.021133,135.485123 
	C77.099556,134.414261 76.778496,132.492508 75.531555,132.729599 
	C71.433716,133.508774 67.075615,131.877365 62.989498,134.673309 
M145.438858,48.981316 
	C148.594223,48.028107 149.212738,45.533215 148.970535,42.746136 
	C148.868500,41.571861 147.825928,40.654003 146.564240,40.568676 
	C144.294907,40.415199 142.840118,41.790203 141.924164,43.659016 
	C140.440872,46.685352 142.768158,47.748787 145.438858,48.981316 
M75.566521,37.774387 
	C73.044876,36.771111 71.017654,37.484600 69.416214,39.581093 
	C68.751495,40.451294 68.486374,41.475521 69.381073,42.270672 
	C71.008278,43.716820 72.713120,45.194450 75.110374,43.690300 
	C77.454422,42.219543 78.623741,40.533913 75.566521,37.774387 
M92.981262,159.733917 
	C92.156052,159.864227 91.330841,159.994537 90.505630,160.124863 
	C93.474785,159.644150 96.820305,164.404724 99.567726,159.703186 
	C97.493965,158.974655 95.562393,159.388748 92.981262,159.733917 
z"/>
<path fill="#000000" opacity="1.000000" stroke="none" 
	d="
M112.190369,103.647522 
	C114.554291,102.709938 116.686050,98.873863 118.653084,102.050491 
	C120.398094,104.868591 117.001274,106.561684 114.684891,107.819260 
	C112.436424,109.039963 110.047447,109.851082 107.591125,108.302193 
	C105.861763,107.211700 104.171318,107.480553 102.332802,108.028282 
	C100.175186,108.671074 98.020874,108.469582 96.175827,106.982422 
	C94.426315,105.572250 92.540771,103.768394 93.953209,101.544289 
	C95.381172,99.295731 97.111435,101.495987 98.664818,102.183006 
	C99.232658,102.434151 99.893906,102.474121 100.944954,102.705704 
	C101.015480,99.433311 99.802353,95.720833 104.840652,95.182739 
	C109.035873,94.734680 110.399925,95.744873 109.625999,99.958488 
	C109.256958,101.967712 108.248444,104.201355 112.190369,103.647522 
z"/>
<path fill="#000000" opacity="1.000000" stroke="none" 
	d="
M96.129967,80.300972 
	C98.254181,80.923943 99.460579,82.005791 98.863190,84.019257 
	C98.381203,85.643730 97.028809,86.290741 95.378189,86.302139 
	C94.119041,86.310837 92.941475,85.956505 92.642113,84.623505 
	C92.077721,82.110420 93.721184,81.028404 96.129967,80.300972 
z"/>
<path fill="#000000" opacity="1.000000" stroke="none" 
	d="
M113.679413,83.828766 
	C114.655792,81.029823 116.429970,80.003548 118.695312,81.511810 
	C120.309853,82.586777 120.329727,84.516228 118.692322,85.708023 
	C116.567680,87.254448 114.666725,86.930984 113.679413,83.828766 
z"/>
</svg>