<svg version="1.1" id="Layer_1" xmlns="http://www.w3.org/2000/svg" xmlns:xlink="http://www.w3.org/1999/xlink" x="0px" y="0px"
	 width="100%" viewBox="0 0 210 210" enable-background="new 0 0 210 210" xml:space="preserve">
<path fill="#FDFDFD" opacity="1.000000" stroke="none" 
	d="
M1.000000,77.000000 
	C1.000000,51.333340 1.000000,26.166679 1.000000,1.000014 
	C70.999977,1.000009 140.999954,1.000009 210.999954,1.000005 
	C210.999969,70.999962 210.999969,140.999924 210.999985,210.999908 
	C141.000061,210.999939 71.000114,210.999939 1.000084,210.999969 
	C1.000000,166.500000 1.000000,122.000000 1.000000,77.000000 
M138.111359,60.179344 
	C137.007416,59.729733 135.525345,58.588963 134.865021,58.950222 
	C132.014481,60.509743 131.354660,67.529846 133.551483,70.285614 
	C135.614883,72.874023 140.472168,73.329826 142.786530,70.352005 
	C144.282669,68.426964 144.342773,65.262100 144.585892,62.610611 
	C144.625702,62.176399 142.280518,61.523514 140.349274,60.936089 
	C139.663742,60.908672 138.978195,60.881256 138.111359,60.179344 
M188.001038,196.482895 
	C188.001038,177.559708 188.001038,158.636505 188.001038,139.713120 
	C182.086807,139.713120 176.779648,139.713120 171.400162,139.713120 
	C170.327713,143.542313 169.554199,147.471512 168.138245,151.153656 
	C162.623749,165.494049 156.732330,172.346817 138.547470,172.537735 
	C131.231415,172.614548 123.906860,171.884796 116.532829,171.519501 
	C117.068420,165.705276 117.577293,160.181137 118.094429,154.567291 
	C113.549675,153.350204 111.946533,154.591599 111.624565,158.920319 
	C111.212479,164.460709 110.084106,169.973740 108.845947,175.403122 
	C108.620293,176.392639 106.385384,177.503036 105.086876,177.492203 
	C103.975563,177.482956 102.003616,176.027527 101.915344,175.072754 
	C101.367386,169.145920 100.110558,162.955307 101.236092,157.277893 
	C103.064842,148.053284 100.280052,140.346405 96.153465,132.703751 
	C94.020676,128.753693 86.539574,127.575592 82.360954,130.901108 
	C79.073608,133.517288 76.892059,133.072433 74.315422,130.258209 
	C72.641319,128.429703 70.796188,126.641785 68.705750,125.361229 
	C67.714317,124.753899 65.905754,125.165253 64.601944,125.559792 
	C64.165176,125.691971 63.714741,127.784348 63.999733,127.995216 
	C68.220673,131.118256 72.321281,134.589767 77.005692,136.803925 
	C78.740021,137.623672 82.038689,135.649033 84.397667,134.488800 
	C86.813950,133.300385 89.510780,132.041916 90.676025,135.021652 
	C91.199455,136.360138 89.236389,139.952545 87.629791,140.596451 
	C83.227707,142.360733 78.465996,143.771912 73.757324,144.122238 
	C61.014080,145.070343 50.034832,132.642975 52.974159,120.416611 
	C54.201263,115.312363 53.584660,111.833572 50.282963,110.048409 
	C49.852764,106.050781 49.840504,103.094719 49.177135,100.292809 
	C46.979172,91.009125 46.050716,81.810898 47.672489,72.224907 
	C51.895962,47.260826 69.781082,25.963764 98.331612,21.844786 
	C115.412926,19.380468 132.095032,22.297348 147.804672,29.387814 
	C153.161880,31.805759 158.642059,34.975391 162.645355,39.160538 
	C171.613388,48.535927 177.190948,60.034973 179.781052,72.832428 
	C181.521957,81.434082 181.823593,89.954124 177.671021,98.098213 
	C170.568878,112.027008 170.845871,112.440956 186.773636,112.110001 
	C187.058853,112.104080 187.339737,111.888405 187.673004,111.749634 
	C187.673004,75.212776 187.673004,38.676281 187.673004,2.317476 
	C133.949158,2.317476 80.553780,2.317476 27.303833,2.317476 
	C27.303833,71.028778 27.303833,139.421188 27.303833,207.706818 
	C81.004517,207.706818 134.399841,207.706818 188.001038,207.706818 
	C188.001038,204.101837 188.001038,200.789368 188.001038,196.482895 
M170.668991,135.052948 
	C171.319153,131.994766 172.356796,128.949356 172.458176,125.873085 
	C172.509903,124.303230 170.881729,122.678017 170.012878,121.077820 
	C169.049347,122.425560 168.001129,123.723770 167.168335,125.147957 
	C166.877579,125.645195 167.239716,126.480392 167.097214,127.114868 
	C165.594666,133.804276 164.097595,140.436646 156.990936,143.827255 
	C147.701889,148.259109 137.782349,148.407013 128.255417,146.375565 
	C123.181358,145.293594 118.812332,140.740280 114.261566,137.558578 
	C113.626480,137.114548 113.545036,135.515976 113.692390,134.523926 
	C113.740112,134.202667 115.393692,133.811768 116.218437,133.963867 
	C121.727821,134.980026 127.237465,136.021805 132.697800,137.270493 
	C140.791061,139.121292 147.808395,136.925903 154.061905,131.833176 
	C154.760147,131.264542 155.216843,129.878799 155.073792,128.986053 
	C154.982910,128.419022 153.524506,127.620865 152.769699,127.708092 
	C151.375793,127.869194 150.072968,128.691696 148.688553,129.085129 
	C144.329575,130.323929 139.936661,132.494186 135.582367,132.434814 
	C130.044174,132.359299 124.517097,130.518784 119.010841,129.321487 
	C113.664474,128.158966 104.661873,131.680481 100.364883,137.553909 
	C103.341743,137.122696 105.351830,136.831528 107.394119,136.535690 
	C110.146645,143.297821 124.928116,152.805267 134.551865,151.545975 
	C138.319626,151.052948 142.203339,151.528000 146.018997,151.303284 
	C156.410828,150.691254 167.607727,146.137939 170.668991,135.052948 
M119.958275,62.926022 
	C113.283302,63.115910 113.283302,63.115910 112.817741,70.098885 
	C112.519905,74.566078 107.295723,77.579750 103.624176,75.643257 
	C102.527466,75.064827 100.859612,75.569260 99.453438,75.577560 
	C99.985649,76.971786 100.117371,79.050720 101.121544,79.638069 
	C104.859665,81.824516 108.708397,82.572289 112.642319,79.399071 
	C113.669693,78.570358 116.381920,78.539963 117.484856,79.321701 
	C121.945961,82.483620 126.660332,82.828064 131.631088,81.423248 
	C132.501968,81.177124 133.045944,79.774208 133.740891,78.905540 
	C132.727768,78.217278 131.766617,77.085800 130.687607,76.959251 
	C129.490036,76.818771 128.207825,77.783409 126.922600,77.940262 
	C121.376831,78.617035 119.486885,75.743301 121.194504,70.452713 
	C121.889450,68.299629 120.944077,65.617096 119.958275,62.926022 
M90.759666,56.194237 
	C86.377388,55.398602 84.875961,57.054146 83.789902,63.078762 
	C83.204536,66.325996 84.445473,68.675697 87.288383,69.166451 
	C89.277527,69.509819 92.216980,68.733032 93.603798,67.336327 
	C97.358826,63.554508 96.204796,59.758671 90.759666,56.194237 
M97.950996,52.695099 
	C103.156601,53.116535 107.436806,49.991867 106.110954,46.618465 
	C104.760406,43.182243 101.806808,40.945251 98.344757,41.896534 
	C95.656693,42.635147 93.489952,45.271080 91.091492,47.063683 
	C93.109230,48.919312 95.126968,50.774940 97.950996,52.695099 
M139.800369,47.856075 
	C138.807404,46.773293 137.979065,45.441692 136.790161,44.655048 
	C133.418015,42.423851 129.719254,43.260807 127.731926,46.332684 
	C125.123169,50.365135 128.102570,52.462185 130.664261,54.398010 
	C134.173141,57.049603 136.796860,53.862583 139.432831,52.300079 
	C140.173599,51.860973 139.960709,49.813038 139.800369,47.856075 
z"/>
<path fill="#030303" opacity="1.000000" stroke="none" 
	d="
M188.001038,196.979889 
	C188.001038,200.789368 188.001038,204.101837 188.001038,207.706818 
	C134.399841,207.706818 81.004517,207.706818 27.303833,207.706818 
	C27.303833,139.421188 27.303833,71.028778 27.303833,2.317476 
	C80.553780,2.317476 133.949158,2.317476 187.673004,2.317476 
	C187.673004,38.676281 187.673004,75.212776 187.673004,111.749634 
	C187.339737,111.888405 187.058853,112.104080 186.773636,112.110001 
	C170.845871,112.440956 170.568878,112.027008 177.671021,98.098213 
	C181.823593,89.954124 181.521957,81.434082 179.781052,72.832428 
	C177.190948,60.034973 171.613388,48.535927 162.645355,39.160538 
	C158.642059,34.975391 153.161880,31.805759 147.804672,29.387814 
	C132.095032,22.297348 115.412926,19.380468 98.331612,21.844786 
	C69.781082,25.963764 51.895962,47.260826 47.672489,72.224907 
	C46.050716,81.810898 46.979172,91.009125 49.177135,100.292809 
	C49.840504,103.094719 49.852764,106.050781 50.282963,110.048409 
	C53.584660,111.833572 54.201263,115.312363 52.974159,120.416611 
	C50.034832,132.642975 61.014080,145.070343 73.757324,144.122238 
	C78.465996,143.771912 83.227707,142.360733 87.629791,140.596451 
	C89.236389,139.952545 91.199455,136.360138 90.676025,135.021652 
	C89.510780,132.041916 86.813950,133.300385 84.397667,134.488800 
	C82.038689,135.649033 78.740021,137.623672 77.005692,136.803925 
	C72.321281,134.589767 68.220673,131.118256 63.999733,127.995216 
	C63.714741,127.784348 64.165176,125.691971 64.601944,125.559792 
	C65.905754,125.165253 67.714317,124.753899 68.705750,125.361229 
	C70.796188,126.641785 72.641319,128.429703 74.315422,130.258209 
	C76.892059,133.072433 79.073608,133.517288 82.360954,130.901108 
	C86.539574,127.575592 94.020676,128.753693 96.153465,132.703751 
	C100.280052,140.346405 103.064842,148.053284 101.236092,157.277893 
	C100.110558,162.955307 101.367386,169.145920 101.915344,175.072754 
	C102.003616,176.027527 103.975563,177.482956 105.086876,177.492203 
	C106.385384,177.503036 108.620293,176.392639 108.845947,175.403122 
	C110.084106,169.973740 111.212479,164.460709 111.624565,158.920319 
	C111.946533,154.591599 113.549675,153.350204 118.094429,154.567291 
	C117.577293,160.181137 117.068420,165.705276 116.532829,171.519501 
	C123.906860,171.884796 131.231415,172.614548 138.547470,172.537735 
	C156.732330,172.346817 162.623749,165.494049 168.138245,151.153656 
	C169.554199,147.471512 170.327713,143.542313 171.400162,139.713120 
	C176.779648,139.713120 182.086807,139.713120 188.001038,139.713120 
	C188.001038,158.636505 188.001038,177.559708 188.001038,196.979889 
M80.463654,148.499802 
	C75.163406,148.279709 69.863159,148.059601 64.668480,147.843887 
	C66.853172,159.738449 72.599297,165.556442 82.874298,165.588898 
	C82.874298,163.636841 82.855804,161.682281 82.878479,159.728210 
	C82.915802,156.510483 82.979782,153.293076 83.852409,149.956711 
	C86.933922,149.572861 88.073532,151.227905 88.086533,154.023132 
	C88.095795,156.014801 87.857674,158.030472 88.087982,159.993439 
	C88.559532,164.012634 88.997368,168.077820 90.047760,171.962173 
	C90.374977,173.172211 92.627625,173.861588 93.998833,174.789307 
	C94.613594,173.204407 95.726700,171.627548 95.752419,170.033142 
	C95.839790,164.616028 95.443230,159.192993 95.429161,153.771698 
	C95.420204,150.318909 95.760910,146.865189 95.953583,143.247360 
	C90.532753,145.238297 85.909088,146.936447 80.463654,148.499802 
M84.384186,13.038797 
	C83.396156,11.325042 82.634857,8.421812 81.366257,8.180000 
	C79.524277,7.828897 76.811668,8.867510 75.358063,10.248102 
	C70.859657,14.520569 70.999702,18.630775 75.348839,23.851259 
	C79.089409,21.180687 86.684906,22.180271 84.384186,13.038797 
M162.194641,30.307604 
	C163.542953,31.713079 164.891266,33.118557 166.239578,34.524033 
	C167.293304,33.373802 168.625076,32.372902 169.340393,31.040939 
	C170.658325,28.586981 171.964355,26.018442 172.575958,23.338066 
	C172.891296,21.956177 172.099670,19.346827 171.089828,18.893940 
	C169.930573,18.374041 167.181534,19.136274 166.520172,20.205616 
	C164.744308,23.077002 163.713470,26.409164 162.194641,30.307604 
z"/>
<path fill="#181818" opacity="1.000000" stroke="none" 
	d="
M170.461029,135.383698 
	C167.607727,146.137939 156.410828,150.691254 146.018997,151.303284 
	C142.203339,151.528000 138.319626,151.052948 134.551865,151.545975 
	C124.928116,152.805267 110.146645,143.297821 107.394119,136.535690 
	C105.351830,136.831528 103.341743,137.122696 100.364883,137.553909 
	C104.661873,131.680481 113.664474,128.158966 119.010841,129.321487 
	C124.517097,130.518784 130.044174,132.359299 135.582367,132.434814 
	C139.936661,132.494186 144.329575,130.323929 148.688553,129.085129 
	C150.072968,128.691696 151.375793,127.869194 152.769699,127.708092 
	C153.524506,127.620865 154.982910,128.419022 155.073792,128.986053 
	C155.216843,129.878799 154.760147,131.264542 154.061905,131.833176 
	C147.808395,136.925903 140.791061,139.121292 132.697800,137.270493 
	C127.237465,136.021805 121.727821,134.980026 116.218437,133.963867 
	C115.393692,133.811768 113.740112,134.202667 113.692390,134.523926 
	C113.545036,135.515976 113.626480,137.114548 114.261566,137.558578 
	C118.812332,140.740280 123.181358,145.293594 128.255417,146.375565 
	C137.782349,148.407013 147.701889,148.259109 156.990936,143.827255 
	C164.097595,140.436646 165.594666,133.804276 167.097214,127.114868 
	C167.239716,126.480392 166.877579,125.645195 167.168335,125.147957 
	C168.001129,123.723770 169.049347,122.425560 170.012878,121.077820 
	C170.881729,122.678017 172.509903,124.303230 172.458176,125.873085 
	C172.356796,128.949356 171.319153,131.994766 170.461029,135.383698 
z"/>
<path fill="#151615" opacity="1.000000" stroke="none" 
	d="
M120.351654,63.050743 
	C120.944077,65.617096 121.889450,68.299629 121.194504,70.452713 
	C119.486885,75.743301 121.376831,78.617035 126.922600,77.940262 
	C128.207825,77.783409 129.490036,76.818771 130.687607,76.959251 
	C131.766617,77.085800 132.727768,78.217278 133.740891,78.905540 
	C133.045944,79.774208 132.501968,81.177124 131.631088,81.423248 
	C126.660332,82.828064 121.945961,82.483620 117.484856,79.321701 
	C116.381920,78.539963 113.669693,78.570358 112.642319,79.399071 
	C108.708397,82.572289 104.859665,81.824516 101.121544,79.638069 
	C100.117371,79.050720 99.985649,76.971786 99.453438,75.577560 
	C100.859612,75.569260 102.527466,75.064827 103.624176,75.643257 
	C107.295723,77.579750 112.519905,74.566078 112.817741,70.098885 
	C113.283302,63.115910 113.283302,63.115910 120.351654,63.050743 
z"/>
<path fill="#232828" opacity="1.000000" stroke="none" 
	d="
M90.886276,56.548569 
	C96.204796,59.758671 97.358826,63.554508 93.603798,67.336327 
	C92.216980,68.733032 89.277527,69.509819 87.288383,69.166451 
	C84.445473,68.675697 83.204536,66.325996 83.789902,63.078762 
	C84.875961,57.054146 86.377388,55.398602 90.886276,56.548569 
z"/>
<path fill="#1C1C1C" opacity="1.000000" stroke="none" 
	d="
M97.547852,52.662834 
	C95.126968,50.774940 93.109230,48.919312 91.091492,47.063683 
	C93.489952,45.271080 95.656693,42.635147 98.344757,41.896534 
	C101.806808,40.945251 104.760406,43.182243 106.110954,46.618465 
	C107.436806,49.991867 103.156601,53.116535 97.547852,52.662834 
z"/>
<path fill="#191919" opacity="1.000000" stroke="none" 
	d="
M139.992798,48.179562 
	C139.960709,49.813038 140.173599,51.860973 139.432831,52.300079 
	C136.796860,53.862583 134.173141,57.049603 130.664261,54.398010 
	C128.102570,52.462185 125.123169,50.365135 127.731926,46.332684 
	C129.719254,43.260807 133.418015,42.423851 136.790161,44.655048 
	C137.979065,45.441692 138.807404,46.773293 139.992798,48.179562 
z"/>
<path fill="#1B1E1E" opacity="1.000000" stroke="none" 
	d="
M141.037643,60.971695 
	C142.280518,61.523514 144.625702,62.176399 144.585892,62.610611 
	C144.342773,65.262100 144.282669,68.426964 142.786530,70.352005 
	C140.472168,73.329826 135.614883,72.874023 133.551483,70.285614 
	C131.354660,67.529846 132.014481,60.509743 134.865021,58.950222 
	C135.525345,58.588963 137.007416,59.729733 138.083984,60.917461 
	C137.648941,63.981373 137.241257,66.307167 136.645538,69.705765 
	C142.013687,67.360954 140.006912,63.569744 141.037643,60.971695 
z"/>
<path fill="#8ABCC6" opacity="1.000000" stroke="none" 
	d="
M140.693451,60.953892 
	C140.006912,63.569744 142.013687,67.360954 136.645538,69.705765 
	C137.241257,66.307167 137.648941,63.981373 138.174637,61.254707 
	C138.978195,60.881256 139.663742,60.908672 140.693451,60.953892 
z"/>
<path fill="#EBEBEB" opacity="1.000000" stroke="none" 
	d="
M81.285416,148.634598 
	C85.909088,146.936447 90.532753,145.238297 95.953583,143.247360 
	C95.760910,146.865189 95.420204,150.318909 95.429161,153.771698 
	C95.443230,159.192993 95.839790,164.616028 95.752419,170.033142 
	C95.726700,171.627548 94.613594,173.204407 93.998840,174.789307 
	C92.627625,173.861588 90.374977,173.172211 90.047760,171.962173 
	C88.997368,168.077820 88.559532,164.012634 88.087982,159.993439 
	C87.857674,158.030472 88.095795,156.014801 88.086533,154.023132 
	C88.073532,151.227905 86.933922,149.572861 83.219307,149.702576 
	C82.152611,149.177155 81.719009,148.905869 81.285416,148.634598 
z"/>
<path fill="#F1F1F1" opacity="1.000000" stroke="none" 
	d="
M80.874535,148.567200 
	C81.719009,148.905869 82.152611,149.177155 82.809372,149.761978 
	C82.979782,153.293076 82.915802,156.510483 82.878479,159.728210 
	C82.855804,161.682281 82.874298,163.636841 82.874298,165.588898 
	C72.599297,165.556442 66.853172,159.738449 64.668480,147.843887 
	C69.863159,148.059601 75.163406,148.279709 80.874535,148.567200 
z"/>
<path fill="#EFEEEE" opacity="1.000000" stroke="none" 
	d="
M84.387589,13.455976 
	C86.684906,22.180271 79.089409,21.180687 75.348839,23.851259 
	C70.999702,18.630775 70.859657,14.520569 75.358063,10.248102 
	C76.811668,8.867510 79.524277,7.828897 81.366257,8.180000 
	C82.634857,8.421812 83.396156,11.325042 84.387589,13.455976 
z"/>
<path fill="#EDEDED" opacity="1.000000" stroke="none" 
	d="
M162.290710,29.932976 
	C163.713470,26.409164 164.744308,23.077002 166.520172,20.205616 
	C167.181534,19.136274 169.930573,18.374041 171.089828,18.893940 
	C172.099670,19.346827 172.891296,21.956177 172.575958,23.338066 
	C171.964355,26.018442 170.658325,28.586981 169.340393,31.040939 
	C168.625076,32.372902 167.293304,33.373802 166.239578,34.524033 
	C164.891266,33.118557 163.542953,31.713079 162.290710,29.932976 
z"/>
</svg>