<svg width="29" height="29" viewBox="0 0 29 29" fill="none" xmlns="http://www.w3.org/2000/svg">
<path d="M10.3095 25.8899H5.5C4.94772 25.8899 4.5 25.4422 4.5 24.8899V16.0831C4.5 15.8284 4.59721 15.5832 4.7718 15.3977L13.8988 5.70032C14.2936 5.2808 14.9603 5.2808 15.3552 5.70032L24.3076 15.2122C24.4822 15.3977 24.5794 15.6429 24.5794 15.8976V24.8899C24.5794 25.4422 24.1317 25.8899 23.5794 25.8899H18.5952C18.043 25.8899 17.5952 25.4422 17.5952 24.8899V19.9534C17.5952 19.9534 17.5952 17.1707 14.627 17.1707C11.1349 17.1707 11.3095 19.9534 11.3095 19.9534V24.8899C11.3095 25.4422 10.8618 25.8899 10.3095 25.8899Z" stroke="black" stroke-width="2"/>
</svg>
