<svg width="29" height="29" viewBox="0 0 29 29" fill="none" xmlns="http://www.w3.org/2000/svg">
<path d="M10.7082 25.2713H5.89868C5.3464 25.2713 4.89868 24.8236 4.89868 24.2713V15.4645C4.89868 15.2097 4.9959 14.9646 5.17048 14.7791L14.2975 5.0817C14.6923 4.66218 15.359 4.66218 15.7539 5.0817L24.7062 14.5936C24.8808 14.7791 24.978 15.0242 24.978 15.279V24.2713C24.978 24.8236 24.5303 25.2713 23.978 25.2713H18.9939C18.4416 25.2713 17.9939 24.8236 17.9939 24.2713V19.3348C17.9939 19.3348 17.9939 16.552 15.0257 16.552C11.5336 16.552 11.7082 19.3348 11.7082 19.3348V24.2713C11.7082 24.8236 11.2605 25.2713 10.7082 25.2713Z" fill="black"/>
</svg>
