<svg width="29" height="29" viewBox="0 0 29 29" fill="none" xmlns="http://www.w3.org/2000/svg">
<path d="M8.33689 8.92661H20.663C22.2516 8.92661 23.5649 10.1651 23.6578 11.751L24.1293 19.7926C24.2976 22.6641 22.0143 25.0852 19.1378 25.0852H9.86203C6.98557 25.0852 4.70227 22.6641 4.87061 19.7926L5.34203 11.751C5.435 10.1651 6.74822 8.92661 8.33689 8.92661Z" stroke="black" stroke-width="2"/>
<path d="M10.8335 8.81546V7.06944C10.8335 5.3337 12.3969 3.92661 14.3255 3.92661C16.2541 3.92661 17.8176 5.3337 17.8176 7.06944V8.81546" stroke="black" stroke-width="2"/>
<path d="M11.0078 12.3074C11.0078 12.3074 11.0078 15.974 14.3253 15.974C17.9919 15.974 17.9919 12.3074 17.9919 12.3074" stroke="black" stroke-width="2" stroke-linecap="round"/>
</svg>
